<svg id="Слой_2" data-name="Слой 2" xmlns="http://www.w3.org/2000/svg" viewBox="0 0 3000 2000"><defs><style>.cls-1{fill:#d0d6ec;}.cls-2{fill:#2b295e;}.cls-3{fill:#221e50;}.cls-4{fill:#af7041;}.cls-5{fill:#333381;}.cls-6{fill:#f0d170;}.cls-7{fill:#dc8d39;opacity:0.2;}.cls-8{fill:#9b613a;}.cls-9{fill:#d35c2b;}.cls-10{fill:#d25c2a;}.cls-11{fill:#f1f4fa;}.cls-12{fill:#d05c2b;}.cls-13{fill:#d98789;}.cls-14{fill:#e7b2b6;}.cls-15{fill:#555ca5;}.cls-16{fill:#333383;}.cls-17{fill:#4f54a0;}.cls-18{fill:#fff;}</style></defs><title>Монтажная область 5</title><g id="_floor" data-name="
floor"><path class="cls-1" d="M2914.66,1876.83H85.34c-7.41,0-13.48,4.86-13.48,10.79v2.89c0,5.94,6.07,10.79,13.48,10.79H2914.66c7.41,0,13.48-4.85,13.48-10.79v-2.89C2928.14,1881.69,2922.07,1876.83,2914.66,1876.83Z"/></g><g id="man_1" data-name="man 1"><path class="cls-2" d="M2377.88,1108.62l157,28.38s-19.87,363.67-60.62,705.67l-110.16-1.1Z"/><path class="cls-3" d="M2677,1838.58l-11.89,38.25h-118S2577.31,1825.23,2677,1838.58Z"/><path class="cls-3" d="M2469.5,1838.58l-11.89,38.25h-118S2369.77,1825.23,2469.5,1838.58Z"/><path class="cls-4" d="M2232.37,1112.61l-17.49,13.29s-40.88,8.79-40.85,54.65c0,0,1.4,18.79,13.68,12s6.81-5.9,24.29-15.07,30.14-25.42,30-39.57l17.38-20.25Z"/><path class="cls-5" d="M2687.69,1843.3s-47.87-609.93-107.33-722.37l-179.23-13,3.4,110.4s20.24,9.6,29.17,27.84l153,595.89Z"/><path class="cls-6" d="M2420.55,702.5l-27.93,123.38-38.18,168.63L2287,1086.86l-36.1,49.4-33.74-18.4,69.51-150.27c6.39-65.42,41.44-228.49,55.21-238.18C2366,712.37,2420.55,702.5,2420.55,702.5Z"/><path class="cls-7" d="M2392.62,825.88l-38.18,168.63L2287,1086.86c8-37,48.55-84.58,56.92-95.76,9.2-12.26-13.29-178.89,12.27-206.49s35.77,38.85,35.77,38.85Z"/><path class="cls-8" d="M2426.13,640.64s6.34,23.35,12.82,71.05c0,0,37.29,32.24,52.81,29.31,13.47-2.55,29.17-45.34,29.17-45.34s-14.86-21.11-29.53-81.14Z"/><path class="cls-4" d="M2416.71,664.08s74.43,15.63,83.45-30.87,24.7-75.8-22.44-87.75-59.84,4-66.63,18.79S2397.58,658.82,2416.71,664.08Z"/><path class="cls-9" d="M2500.16,633.21s4.54-63.27-62.62-71.91-28-67.11,30.93-67.08c0,0-9.62,21.29,25.92,30.68C2569,544.62,2508.51,624.41,2500.16,633.21Z"/><path class="cls-3" d="M2578.06,1199.92c-51.79,0-74.3-37.57-74.52-38l2.39-1.39c.11.18,16.76,19.46,34.73,29.19C2558.86,1199.61,2578.37,1199.92,2578.06,1199.92Z"/><path class="cls-2" d="M2653.18,1790.82c-1-55.33-5.1-120.49-12.72-187.91-1.17-10.3-2.43-20.9-3.75-31.48-1.46-11.68-3-23.5-4.6-35.12-.55-4-2.42-8.4-4.23-12.66-1.68-4-3.42-8.06-3.92-11.5-6.38-44.15-14.12-84.25-20.94-119.64q-2.68-13.92-5.23-27.28c-15.21-80.51-23.54-126.18-23.6-126.63h0c0,.45,5.78,46.33,21,127q2.52,13.38,5.23,27.29c6.82,35.35,14.55,75.42,20.91,119.49.56,3.85,2.38,8.14,4.15,12.29s3.51,8.28,4,11.85c1.59,11.61,3.14,23.42,4.6,35.08,1.32,10.58,2.58,21.16,3.74,31.45,7.62,67.33,13.63,132.75,14.62,188Z"/><path class="cls-6" d="M2588.19,1141.37c-1.18.43-26.06,17.38-140,2.05-25.28-3.4-69.13-3.89-80.51-35.44-3.49-107.94-27-378.06-25.8-378.57-.47,1.66,34.81-20.42,95.32-30.15,4.51,7.7,13.35,16.8,27.68,17.2,17.25.48,42.57-12.84,56.09-20.8a376.94,376.94,0,0,1,54,8.2c1.73.39,8.31,69.12,12.76,151.33,1.32,24.42,2.46,50,3.21,75.39C2593.83,1029,2607.18,1134.5,2588.19,1141.37Z"/><path class="cls-7" d="M2590.87,930.58c-18.24,8.33-53.81,21.28-55.32-3.37-2.05-33.22,25-86.89,35.78-88.93,6.25-1.2,12.35,8.57,16.33,16.91C2589,879.61,2590.12,905.22,2590.87,930.58Z"/><rect class="cls-10" x="2467.27" y="916.8" width="166.2" height="221.19" transform="translate(-197.59 1120.37) rotate(-23.88)"/><path class="cls-4" d="M2525.93,1032l-5.44,6.77s-37.24-19.58-66.78,15.86c0,0-11,15.41,2.81,18.1s9.06-.17,28.47,4,39.67-.2,48.68-11.22l9.95-12.31Z"/><path class="cls-6" d="M2521.6,695.66s77.52.63,87.88,8.29,114,179.39,115.69,245.32c0,0-64.28,67.9-181.7,107.77L2520,1033.27s88.52-89.53,130.73-105.89c0,0-69.84-70.87-85.19-109S2521.6,695.66,2521.6,695.66Z"/></g><rect class="cls-1" x="926.3" y="220.48" width="1148.75" height="1538.97"/><rect class="cls-11" x="953.48" y="243.73" width="1094.39" height="1490.65"/><path class="cls-1" d="M1240.88,566H1043.57V368.69h197.31Zm-179.77-17.54h162.23V386.23H1061.11Z"/><polygon class="cls-12" points="1086.51 419.12 1137.73 522.15 1270.66 311.69 1133.65 447.62 1086.51 419.12"/><path class="cls-1" d="M1240.88,910.18H1043.57V712.88h197.31Zm-179.77-17.53h162.23V730.42H1061.11Z"/><polygon class="cls-12" points="1086.51 763.3 1137.73 866.34 1270.66 655.88 1133.65 791.8 1086.51 763.3"/><rect class="cls-1" x="1337.27" y="742.12" width="300.6" height="20.94"/><rect class="cls-1" x="1337.27" y="792.42" width="210.95" height="20.94"/><rect class="cls-1" x="1337.27" y="1054.95" width="300.6" height="20.94"/><rect class="cls-1" x="1337.27" y="1105.25" width="300.6" height="20.94"/><rect class="cls-1" x="1337.27" y="1155.55" width="204.73" height="20.94"/><rect class="cls-1" x="1337.27" y="1367.78" width="300.6" height="20.94"/><rect class="cls-1" x="1337.27" y="1418.08" width="300.6" height="20.94"/><rect class="cls-1" x="1337.27" y="1468.38" width="204.73" height="20.94"/><path class="cls-1" d="M1240.88,1216H1043.57V1018.7h197.31Zm-179.77-17.53h162.23V1036.24H1061.11Z"/><path class="cls-1" d="M1240.88,1521.83H1043.57V1324.52h197.31Zm-179.77-17.54h162.23V1342.06H1061.11Z"/><path class="cls-12" d="M1152.7,202.08v57.18a32.7,32.7,0,0,0,32.7,32.7h633.72a29.52,29.52,0,0,0,29.53-29.52V202.08Z"/><rect class="cls-1" x="1337.27" y="405.96" width="300.6" height="20.94"/><rect class="cls-1" x="1337.27" y="456.26" width="300.6" height="20.94"/><rect class="cls-1" x="1337.27" y="506.57" width="204.73" height="20.94"/><g id="man_2" data-name="man 2"><path class="cls-13" d="M1736.85,717.8s9.07,45.82,8,64.07l87.39,30.18,13.34-46.18s-36.78-29.92-56.67-62.35Z"/><path class="cls-14" d="M1729.36,738.58S1804.74,729,1798,682.1s-1.51-79.65-49.93-75.48-55.18,23.38-56.74,39.56S1709.58,739.87,1729.36,738.58Z"/><path class="cls-15" d="M1798,682.1s-16.44-61.22-82.67-47.37-48.4-54.19,7.22-73.45c0,0-2.1,23.24,34.53,20.47C1834,575.93,1803,671.06,1798,682.1Z"/><path class="cls-3" d="M1745.21,1838.58l-11.89,38.23H1615.4S1645.56,1825.25,1745.21,1838.58Z"/><path class="cls-3" d="M1954.7,1839.42l-10.52,38.23H1839.75S1866.46,1826.09,1954.7,1839.42Z"/><path class="cls-2" d="M1685.21,1189.38l181.62,1.43s-31.22,347.19-119.71,654.56l-106.75,2.86Z"/><path class="cls-16" d="M1761.11,1205.87l184.57-18.34s48.51,260.87,14.85,660.7h-91.41Z"/><path class="cls-2" d="M1939,1829.67c-8.29-54.67-15.15-119.54-18.92-187.23-.57-10.35-1.11-21-1.58-31.65-.51-11.74-1-23.64-1.34-35.36-.13-4,1-8.68,2-13.18,1-4.18,2-8.51,1.94-12-1.11-44.55-.2-85.36.61-121.36.21-9.44.42-18.68.58-27.74,1.51-81.86,2.08-128.24,2.06-128.69h0c0,.45,2.06,46.6.55,128.57q-.26,13.59-.59,27.75c-.8,36-1.71,76.73-.61,121.21.1,3.88-1,8.42-2,12.8s-2.08,8.74-2,12.34c.37,11.71.82,23.59,1.34,35.33.47,10.64,1,21.27,1.57,31.61,3.77,67.59,8.79,133,17.06,187.62Z"/><path class="cls-3" d="M1920,1259c-51.8,0-74.3-37.58-74.53-38l2.39-1.39c.11.19,16.76,19.46,34.74,29.19C1900.82,1258.64,1920.34,1259,1920,1259Z"/><path class="cls-14" d="M1375.81,875.81,1364,857.28s-5.37-41.47-51.09-45.23c0,0-18.83-.16-13.1,12.64s5.32,7.27,13,25.45,22.84,32.14,37,33.17l18.75,19Z"/><path class="cls-15" d="M2062.38,990s-13,91.52-107.76,144.2c0,0-8-33.28-19.29-37,0,0,11.13-55.81,37.5-91.88,0,0-10.49-7.36-24.16-18.54a301,301,0,0,1-24.3-21.89c-2.53,25-1.53,71.64.78,120.74,1.73,37,12.32,70.1,19.46,93.21,0,0,11.35,22.92-32.77,23.12-7.77,0-18.49.72-31.1,1.26h0c-66.66,2.78-193.06,9-195.6-14.47-9-83.49-36-211.87-44.75-261.17-28.15,54.12-151.68,77.2-151.68,77.2C1374,956.55,1345.47,890,1345.47,890c1.79-2.75,31.08-38.93,31.08-38.93s57.13,37.94,108.76,56.51c0,0,99.48-64.92,150.86-118.51,3.65-3.8,32.06-12.92,65.67-19.34,13.1-2.51,42.18-6,42.18-6a31.8,31.8,0,0,0,2.44,8.39l.1.19a1.08,1.08,0,0,1,.16.25c1.92,3.55,5.65,7.36,11.14,10.34l.15.07a42.53,42.53,0,0,0,10.18,3.79,56.94,56.94,0,0,0,13.36,1.5h.16c26.75-.05,59.61-10.88,63.88-22.45l3.35.51c21.54,3,75.56,6.63,92.16,16.63C2027.55,835.07,2062.38,990,2062.38,990Z"/><path class="cls-17" d="M1911.84,1202c-7.77.25-18.49.72-31.1,1.26h0c-66.66,2.78-193.06,9-195.6-14.47-8.15-75.55-31.07-187.85-41.8-245.07a6.82,6.82,0,0,0-11.88-3.18c-35.73,41.13-125.78,60.84-140.65,63.86a6.82,6.82,0,0,1-4-.41c-96.5-41.08-131.17-95-139.27-109.94a6.79,6.79,0,0,1,.63-7.44c5.54-7.09,18.19-22.78,24.59-30.7a6.82,6.82,0,0,1,9-1.47c14.73,9.39,58.92,36.53,100.42,52a6.75,6.75,0,0,0,6.12-.72c16.7-11.08,101.77-68.42,148-116.6,3.35-3.49,27.59-11.47,57.56-17.72a6.83,6.83,0,0,1,8.23,6.56c7,380.52,173.36,325.91,207,310.91a6.83,6.83,0,0,1,8.92,3.2h0a7,7,0,0,1,.7,2.68c1.82,36.4,8.05,69.73,23.18,85.81C1941.8,1180.54,1960.71,1200.35,1911.84,1202Z"/><path class="cls-14" d="M1939.52,1108.41l-6.85,5.31s-31.62-27.71-68.59-.18c0,0-14.32,12.4-1.5,18.25s8.85,2,26.73,10.55,38.58,9.07,49.92.46l12.53-9.64Z"/><polygon class="cls-1" points="1936.26 1092.96 1928.48 1104.29 1946.48 1149.63 1968.52 1125.85 1936.26 1092.96"/><polygon class="cls-1" points="1376.55 851.09 1363.18 844.59 1328.52 896.68 1356.64 908.28 1376.55 851.09"/></g><g id="girl"><polygon class="cls-14" points="532.96 1801.63 554.39 1851.41 582.97 1847.95 577.9 1768.45 532.96 1801.63"/><polygon class="cls-14" points="780.83 1816.3 813.8 1859.3 840.66 1848.94 816.25 1773.11 780.83 1816.3"/><path class="cls-14" d="M853.79,971.51h0a9.67,9.67,0,0,0-.83-1.08c-3.5-5.32-11.12-24.39-11.12-24.39s-25,48.73-22.65,50.22l1,.6,7.79,10.24,9.11-3.22a9.59,9.59,0,0,0,1.7-.61h0a9.65,9.65,0,0,0,4.16-3.64l11-17.46A9.82,9.82,0,0,0,853.79,971.51Z"/><path class="cls-14" d="M613.59,675.66c-9.07-16.32-25-33.44-77.85-15.61s-32.31,50-17.87,102.34c4.23,15.34,14.4,24.08,26.66,28.79-3.14,25.78-22.64,68.18-22.64,68.18H591c6.44-15.61,10.1-50.94,11.42-66,8.22-1.49,13.58-3.06,13.58-3.06C637.42,782.61,622.66,692,613.59,675.66Z"/><path class="cls-16" d="M468.47,1211.81l114.3,23.08v563l-57.15,8.24S424.23,1408.38,468.47,1211.81Z"/><path class="cls-15" d="M461.09,997.81s-17.17-32.66-16.68-68.33c.45,34.48,16.68,65.34,16.68,65.34s7.74,52.79,7.63,108.71C468.56,1048.75,461.09,997.81,461.09,997.81Z"/><polygon class="cls-1" points="723.57 938.83 758.14 861.4 868.52 878.68 813.21 1018.33 702.14 996.9 723.57 938.83"/><polygon class="cls-18" points="729.39 938.92 760.7 868.79 860.68 884.44 810.59 1010.94 709.98 991.53 729.39 938.92"/><path class="cls-9" d="M551.73,1847.2l9,29.73H649.9S627.08,1836.83,551.73,1847.2Z"/><path class="cls-15" d="M830.67,1011.42c-12.91,59.91-81.35,66.36-81.35,66.36a261.07,261.07,0,0,1-64.42-16.39c.25,1.4.5,2.78.74,4.16,12,69.7,13,129.84,4,137.83-24,21.19-174.35,35.84-212,31.6S450,1214.33,450,1214.33c34.1-59.11,11-216.51,11-216.51S385.45,864,513.58,835.56c28.39-6.31,69.13-4.66,94.6,11.69,0,0,70.35-8.82,142.35,144.21,36-15.12,71.16,5.46,71.16,5.46Z"/><path class="cls-9" d="M802.17,1847.2l9,29.73h89.18S877.53,1836.83,802.17,1847.2Z"/><path class="cls-15" d="M477.69,1234.89l198.76-24.38,163,591.5L769,1819.9S501.66,1553,477.69,1234.89Z"/><path class="cls-15" d="M839.49,1803.55l-42.75,10.84-27.76,7s-267.32-266.93-291.3-585l129.39-18.66,68.66-9.89Z"/><path class="cls-17" d="M596.09,841s-134.74,94-47,297c0,0,19.79,65.13,127.38,72.51,1.37.09-71.77,15.74-70.14,15.85-14.29.56-121.28,9.45-128.69,8.62C440,1230.72,450,1214.33,450,1214.33,484.09,1155.23,461,997.8,461,997.8S385.45,864,513.57,835.54a158.63,158.63,0,0,1,47.15-2.74C577,833.34,596.09,841,596.09,841Z"/><path class="cls-16" d="M808.55,1811.4c-25.78-53.38-53.32-117.67-78.6-185.82-3.86-10.42-7.78-21.16-11.63-31.92-4.24-11.87-8.47-23.92-12.56-35.8-1.4-4.09-1.74-9.21-2.07-14.15-.31-4.61-.62-9.37-1.81-12.9-15.22-45.29-27.2-87.38-37.76-124.51q-4.15-14.61-8.18-28.61c-24.35-84.33-38.44-132-38.6-132.49h0c.17.46,16.85,47.1,41.23,131.54q4,14,8.19,28.62c10.55,37.1,22.51,79.15,37.71,124.37,1.33,3.94,1.66,8.93,2,13.75s.63,9.61,1.89,13.27c4.09,11.87,8.31,23.9,12.55,35.76,3.85,10.75,7.75,21.48,11.61,31.89,25.24,68,51.09,133.51,76.83,186.8Z"/><path class="cls-9" d="M548.61,865.58c105.92-155.93,56.27-210.8,56.27-210.8C599.3,639.52,502,643.34,485.53,690c-13.4,37.82-52.08,110-52.08,110-153,212.31-125.36,320.23-125.36,320.23l28.45-2.19c.22-8.68,1-18.26,3.35-22.43v22.17l108-8.37c.86-21.72,3.71-60.31,3.71-60.31l9.77,58.07,29.28-2.82c-6-121.23,19.75-180.76,27.37-195.51-6.54,67.39,26.08,177.3,26.08,177.3l4.67-1-10.59-55,13.55,54.28,13.14-3C533.19,970.84,540.43,900.13,548.61,865.58Z"/><polygon class="cls-9" points="789.88 866.37 785.33 877.3 823.12 883.06 827.95 872.33 789.88 866.37"/><path class="cls-1" d="M836.56,914.75l-78.13-12.43a2.63,2.63,0,0,1-2.17-3h0a2.62,2.62,0,0,1,3-2.17l78.14,12.43a2.63,2.63,0,0,1,2.17,3h0A2.63,2.63,0,0,1,836.56,914.75Z"/><path class="cls-1" d="M832.49,922.5l-78.13-12.44a2.61,2.61,0,0,1-2.17-3h0a2.62,2.62,0,0,1,3-2.17l78.13,12.43a2.63,2.63,0,0,1,2.17,3h0A2.62,2.62,0,0,1,832.49,922.5Z"/><path class="cls-1" d="M778.52,921.91l-26.93-4.28a2.63,2.63,0,0,1-2.17-3h0a2.64,2.64,0,0,1,3-2.18l26.93,4.29a2.61,2.61,0,0,1,2.17,3h0A2.61,2.61,0,0,1,778.52,921.91Z"/><path class="cls-1" d="M792.93,924.2l-5.27-.83a2.64,2.64,0,0,1-2.17-3h0a2.64,2.64,0,0,1,3-2.18l5.26.84a2.62,2.62,0,0,1,2.17,3h0A2.61,2.61,0,0,1,792.93,924.2Z"/><path class="cls-1" d="M815.34,927.77,801,925.48a2.61,2.61,0,0,1-2.17-3h0a2.62,2.62,0,0,1,3-2.17l14.36,2.29a2.62,2.62,0,0,1,2.17,3h0A2.62,2.62,0,0,1,815.34,927.77Z"/><path class="cls-1" d="M796.71,947.9l-5.26-.84a2.63,2.63,0,0,1-2.18-3h0a2.63,2.63,0,0,1,3-2.17l5.26.84a2.61,2.61,0,0,1,2.17,3h0A2.61,2.61,0,0,1,796.71,947.9Z"/><path class="cls-1" d="M819.12,951.47l-14.36-2.29a2.61,2.61,0,0,1-2.17-3h0a2.61,2.61,0,0,1,3-2.17l14.36,2.28a2.63,2.63,0,0,1,2.17,3h0A2.63,2.63,0,0,1,819.12,951.47Z"/><path class="cls-17" d="M796.74,1814.39l-27.76,7s-267.31-270.08-291.29-588.17l142-10s-30,19.07,17.57,151.78c48,133.92,57.57,185.36,57.57,185.36S718.51,1643.09,796.74,1814.39Z"/><path class="cls-14" d="M853.73,876.36h0L824.18,872l-33.07-5.43a.29.29,0,0,0,.39.07l32.91,5.15Z"/><path class="cls-17" d="M830.67,1011.42c-12.91,59.91-81.35,66.36-81.35,66.36a261.07,261.07,0,0,1-64.42-16.39c.25,1.4-17.46-26.24-12.87-32.37,6.58-8.77,58.47,39.46,73.08,36.55S830.67,1011.42,830.67,1011.42Z"/></g><g id="_pencil" data-name="
pencil"><rect class="cls-12" x="1348.52" y="748.57" width="25.03" height="254.74" transform="translate(2973.56 1015.45) rotate(152.18)"/><polygon class="cls-6" points="1288.39 738.25 1312.67 757.45 1290.53 769.13 1288.39 738.25"/></g></svg>